{"accessors":[{"bufferView":0,"byteOffset":0,"componentType":5126,"count":1950,"max":[0.5,1.0,0.5],"min":[-0.5,-1.0,-0.5],"normalized":false,"type":"VEC3"},{"bufferView":1,"byteOffset":0,"componentType":5126,"count":1950,"max":[1.0,0.0,1.0,1.0],"min":[-1.0,-0.0000215795153053477,-1.0,1.0],"normalized":false,"type":"VEC4"},{"bufferView":2,"byteOffset":0,"componentType":5126,"count":1950,"max":[1.0,1.0,1.0],"min":[-1.0,-1.0,-1.0],"normalized":false,"type":"VEC3"},{"bufferView":3,"byteOffset":0,"componentType":5126,"count":1950,"max":[1.0,1.0],"min":[0.0,0.0],"normalized":false,"type":"VEC2"},{"bufferView":4,"byteOffset":0,"componentType":5123,"count":10368,"max":[1949.0],"min":[0.0],"normalized":false,"type":"SCALAR"},{"bufferView":5,"byteOffset":0,"componentType":5126,"count":24,"max":[0.5,0.0500000007450581,0.0500000007450581],"min":[-0.5,-0.0500000007450581,-0.0500000007450581],"normalized":false,"type":"VEC3"},{"bufferView":6,"byteOffset":0,"componentType":5126,"count":24,"max":[1.0,0.0,1.0,1.0],"min":[-1.0,-0.0000152592547237873,-1.0,1.0],"normalized":false,"type":"VEC4"},{"bufferView":7,"byteOffset":0,"componentType":5126,"count":24,"max":[1.0,1.0,1.0],"min":[-1.0,-1.0,-1.0],"normalized":false,"type":"VEC3"},{"bufferView":8,"byteOffset":0,"componentType":5126,"count":24,"max":[1.0,1.0],"min":[0.0,0.0],"normalized":false,"type":"VEC2"},{"bufferView":9,"byteOffset":0,"componentType":5123,"count":36,"max":[23.0],"min":[0.0],"normalized":false,"type":"SCALAR"}],"asset":{"generator":"Godot Engine v4.4.stable.official@4c311cbee68c0b66ff8ebb8b0defdd9979dd2a41","version":"2.0"},"bufferViews":[{"buffer":0,"byteLength":23400,"byteOffset":0,"byteStride":12,"target":34962},{"buffer":0,"byteLength":31200,"byteOffset":23400,"byteStride":16,"target":34962},{"buffer":0,"byteLength":23400,"byteOffset":54600,"byteStride":12,"target":34962},{"buffer":0,"byteLength":15600,"byteOffset":78000,"byteStride":8,"target":34962},{"buffer":0,"byteLength":20736,"byteOffset":93600,"target":34963},{"buffer":0,"byteLength":288,"byteOffset":114336,"byteStride":12,"target":34962},{"buffer":0,"byteLength":384,"byteOffset":114624,"byteStride":16,"target":34962},{"buffer":0,"byteLength":288,"byteOffset":115008,"byteStride":12,"target":34962},{"buffer":0,"byteLength":192,"byteOffset":115296,"byteStride":8,"target":34962},{"buffer":0,"byteLength":72,"byteOffset":115488,"target":34963}],"buffers":[{"byteLength":115560,"uri":"player_main0.bin"}],"extensions":{"OMI_physics_shape":{"shapes":[{"capsule":{"height":2.0,"radius":0.5},"type":"capsule"}]}},"extensionsUsed":["GODOT_single_root","OMI_physics_body","OMI_physics_shape"],"images":[{"uri":"textures%2F_albedo000.png"}],"materials":[{"extensions":{},"pbrMetallicRoughness":{"baseColorFactor":[1.0,1.0,1.0,1.0],"baseColorTexture":{"index":0},"metallicFactor":0.0,"roughnessFactor":1.0}}],"meshes":[{"extras":{"targetNames":[]},"primitives":[{"attributes":{"NORMAL":2,"POSITION":0,"TANGENT":1,"TEXCOORD_0":3},"indices":4,"material":0,"mode":4}]},{"extras":{"targetNames":[]},"primitives":[{"attributes":{"NORMAL":7,"POSITION":5,"TANGENT":6,"TEXCOORD_0":8},"indices":9,"material":0,"mode":4}]}],"nodes":[{"children":[1,2,3],"extensions":{"OMI_physics_body":{"motion":{"type":"kinematic"}}},"name":"PlayerMain"},{"mesh":0,"name":"player_ref","translation":[0.0,1.0,0.0]},{"extensions":{"OMI_physics_body":{"collider":{"shape":0}}},"name":"CollisionShape3D","translation":[0.0,1.0,0.0]},{"mesh":1,"name":"MeshInstance3D","rotation":[0.0,-0.70710676908493,0.0,0.70710676908493],"translation":[0.0,1.5,1.0]}],"samplers":[{"magFilter":9729,"minFilter":9987,"wrapS":10497,"wrapT":10497}],"scene":0,"scenes":[{"nodes":[0]}],"textures":[{"sampler":0,"source":0}]}